HIERARCHY
ROOT Hips
{
 OFFSET 0.000000 0.000000 0.000000
 CHANNELS 6 Xposition Yposition Zposition Yrotation Xrotation Zrotation
 JOINT Chest
 {
  OFFSET 0.000000 9.585900 0.002600
  CHANNELS 3 Yrotation Xrotation Zrotation
  JOINT Chest2
  {
   OFFSET 0.000000 9.601200 -0.005300
   CHANNELS 3 Yrotation Xrotation Zrotation
   JOINT Chest3
   {
    OFFSET 0.000000 9.561800 0.000000
    CHANNELS 3 Yrotation Xrotation Zrotation
    JOINT Chest4
    {
     OFFSET 0.000000 9.552100 0.000000
     CHANNELS 3 Yrotation Xrotation Zrotation
     JOINT Neck
     {
      OFFSET 0.000000 14.453000 0.000000
      CHANNELS 3 Yrotation Xrotation Zrotation
      JOINT Head
      {
       OFFSET 0.000000 8.936500 -0.011300
       CHANNELS 3 Yrotation Xrotation Zrotation
       End Site
       {
        OFFSET 0.000000 17.073600 -0.006000
       }
      }
     }
     JOINT RightCollar
     {
      OFFSET -2.921100 9.558500 0.000000
      CHANNELS 3 Yrotation Xrotation Zrotation
      JOINT RightShoulder
      {
       OFFSET -13.519700 0.000000 0.000000
       CHANNELS 3 Yrotation Xrotation Zrotation
       JOINT RightElbow
       {
        OFFSET 0.000000 -29.696600 0.000000
        CHANNELS 3 Yrotation Xrotation Zrotation
        JOINT RightWrist
        {
         OFFSET 0.000000 -24.004700 0.000000
         CHANNELS 3 Yrotation Xrotation Zrotation
         End Site
         {
          OFFSET 0.000000 -17.728500 0.000000
         }
        }
       }
      }
     }
     JOINT LeftCollar
     {
      OFFSET 2.921100 9.558500 0.000000
      CHANNELS 3 Yrotation Xrotation Zrotation
      JOINT LeftShoulder
      {
       OFFSET 13.519700 0.000000 0.000000
       CHANNELS 3 Yrotation Xrotation Zrotation
       JOINT LeftElbow
       {
        OFFSET 0.000000 -29.696600 0.000000
        CHANNELS 3 Yrotation Xrotation Zrotation
        JOINT LeftWrist
        {
         OFFSET 0.000000 -24.004700 0.000000
         CHANNELS 3 Yrotation Xrotation Zrotation
         End Site
         {
          OFFSET 0.000000 -17.728500 0.000000
         }
        }
       }
      }
     }
    }
   }
  }
 }
 JOINT RightHip
 {
  OFFSET -7.771700 -0.012900 -0.001300
  CHANNELS 3 Yrotation Xrotation Zrotation
  JOINT RightKnee
  {
   OFFSET 0.000000 -40.869800 0.001200
   CHANNELS 3 Yrotation Xrotation Zrotation
   JOINT RightAnkle
   {
    OFFSET 0.000000 -39.717900 0.002100
    CHANNELS 3 Yrotation Xrotation Zrotation
    JOINT RightToe
    {
     OFFSET 0.000000 -4.965400 11.033500
     CHANNELS 3 Yrotation Xrotation Zrotation
     End Site
     {
      OFFSET 0.000000 -1.423100 5.872300
     }
    }
   }
  }
 }
 JOINT LeftHip
 {
  OFFSET 7.771700 -0.012900 -0.001300
  CHANNELS 3 Yrotation Xrotation Zrotation
  JOINT LeftKnee
  {
   OFFSET 0.000000 -40.869800 0.001200
   CHANNELS 3 Yrotation Xrotation Zrotation
   JOINT LeftAnkle
   {
    OFFSET 0.000000 -39.717900 0.002100
    CHANNELS 3 Yrotation Xrotation Zrotation
    JOINT LeftToe
    {
     OFFSET 0.000000 -4.965400 11.033500
     CHANNELS 3 Yrotation Xrotation Zrotation
     End Site
     {
      OFFSET 0.000000 -1.423100 5.872300
     }
    }
   }
  }
 }
}
MOTION
Frames: 5
Frame Time: 0.008333
0.000000 85.388000 0.000000 0.000000 -5.767877 0.000000 0.000000 11.653817 0.000000 0.000000 -5.885947 0.000000 0.000000 -0.000000 0.000000 0.000000 -0.000000 0.000000 0.000000 12.528835 0.000000 0.000000 0.711642 0.000000 0.000000 -0.000000 0.000000 0.000000 0.000000 -90.000000 0.000000 -2.309062 0.000000 0.000000 2.309062 0.000000 0.000000 -0.000000 0.000000 0.000000 -0.000000 90.000000 0.000000 -2.309062 0.000000 0.000000 2.309062 0.000000 0.000000 8.520406 0.000000 0.000000 1.905762 0.000000 -0.000000 -4.658285 0.000000 0.000000 -0.000000 0.000000 0.000000 8.520406 0.000000 0.000000 1.905762 0.000000 -0.000000 -4.658285 0.000000 0.000000 -0.000000 0.000000
-10.246740 55.759211 21.766145 -175.228992 -28.615140 -9.283209 -0.986760 18.085243 6.183622 -0.654181 10.363938 3.125789 -0.730464 12.959323 3.904688 -0.654211 10.363934 3.125843 2.084551 22.979428 -2.378743 2.797308 -0.989491 -3.047975 1.883315 -3.297123 -4.369114 -4.375389 -3.888421 -4.756461 -69.733786 -39.430570 127.376504 10.128342 -1.399393 55.552794 -11.593868 -1.742971 -3.949819 -0.460600 -8.830977 3.630368 96.495575 -46.619838 -141.132042 14.130541 19.820405 -63.861018 -21.487213 -36.266008 6.413592 -22.844847 87.387967 -25.456476 1.804359 -19.607190 -0.977763 -0.036461 0.586126 -0.002172 -11.896467 -48.430166 10.630792 -178.476581 81.024498 175.364169 -2.696291 -18.356543 5.507394 -0.019039 -0.552926 0.028520
-10.256594 55.766065 21.784840 -175.247226 -28.649056 -9.285246 -0.981604 18.153688 6.199080 -0.672834 10.474339 3.151232 -0.730108 13.055496 3.923381 -0.654787 10.440963 3.140622 2.091020 22.920603 -2.419934 2.813489 -1.057754 -3.093652 1.952963 -3.397207 -4.406465 -4.268601 -3.839844 -4.774487 -69.620481 -39.412011 127.282453 10.128999 -1.369070 55.565735 -11.551909 -1.857101 -3.955610 -0.584900 -8.793305 3.716567 96.314097 -46.513560 -140.974613 14.134829 19.826507 -63.690725 -21.459742 -36.233441 6.419347 -22.871842 87.351010 -25.494378 1.788331 -19.579584 -0.958610 -0.036845 0.587588 -0.001229 -11.829423 -48.400872 10.626708 -178.431744 81.051576 175.404280 -2.719454 -18.326186 5.541084 -0.019285 -0.556409 0.031588
-10.266072 55.775677 21.802222 -175.277998 -28.706226 -9.293325 -0.979501 18.291701 6.236152 -0.664505 10.525188 3.159562 -0.730154 13.140415 3.940379 -0.655544 10.508885 3.154129 2.095445 22.866230 -2.460642 2.827256 -1.120794 -3.138365 2.015880 -3.478121 -4.445769 -4.176478 -3.781639 -4.778705 -69.531678 -39.402257 127.208995 10.129463 -1.362676 55.550487 -11.513954 -1.952284 -3.961171 -0.690709 -8.737059 3.791633 96.127219 -46.407305 -140.817819 14.137623 19.835920 -63.540895 -21.413809 -36.172199 6.439186 -22.961391 87.302238 -25.601899 1.753158 -19.549663 -0.924605 -0.024536 0.590131 -0.000571 -11.755155 -48.344029 10.633489 -178.366346 81.078731 175.465569 -2.742756 -18.299174 5.579705 -0.016672 -0.560622 0.029852
-10.276946 55.788436 21.814864 -175.326590 -28.798473 -9.291147 -0.953661 18.454224 6.271127 -0.656778 10.568635 3.165721 -0.730878 13.215140 3.954862 -0.656774 10.568625 3.165675 2.101509 22.813849 -2.500532 2.842663 -1.181432 -3.182598 2.072990 -3.546036 -4.480151 -4.101875 -3.711907 -4.776219 -69.462666 -39.401087 127.154971 10.119495 -1.374408 55.498943 -11.476814 -2.029686 -3.963034 -0.778571 -8.663432 3.855602 95.937173 -46.296246 -140.665709 14.135889 19.847957 -63.399158 -21.331784 -36.081221 6.429395 -22.868575 87.259885 -25.518752 1.736783 -19.515795 -0.900624 -0.021381 0.588531 0.001404 -11.673481 -48.245404 10.634063 -178.318555 81.105990 175.499132 -2.749918 -18.278277 5.602798 -0.016921 -0.568248 0.028393
